<svg aria-hidden="true" style="position: absolute; width: 0; height: 0; overflow: hidden;" version="1.1" xmlns="http://www.w3.org/2000/svg" xmlns:xlink="http://www.w3.org/1999/xlink">
<defs>
<symbol id="home" viewBox="0 0 32 32">
<path d="M32 18.451l-16-12.42-16 12.42v-5.064l16-12.42 16 12.42zM28 18v12h-8v-8h-8v8h-8v-12l12-9z"></path>
</symbol>
<symbol id="portfolio" viewBox="0 0 36 32">
<path d="M34 4h-2v-2c0-1.1-0.9-2-2-2h-28c-1.1 0-2 0.9-2 2v24c0 1.1 0.9 2 2 2h2v2c0 1.1 0.9 2 2 2h28c1.1 0 2-0.9 2-2v-24c0-1.1-0.9-2-2-2zM4 6v20h-1.996c-0.001-0.001-0.003-0.002-0.004-0.004v-23.993c0.001-0.001 0.002-0.003 0.004-0.004h27.993c0.001 0.001 0.003 0.002 0.004 0.004v1.996h-24c-1.1 0-2 0.9-2 2v0zM34 29.996c-0.001 0.001-0.002 0.003-0.004 0.004h-27.993c-0.001-0.001-0.003-0.002-0.004-0.004v-23.993c0.001-0.001 0.002-0.003 0.004-0.004h27.993c0.001 0.001 0.003 0.002 0.004 0.004v23.993z"></path>
<path d="M30 11c0 1.657-1.343 3-3 3s-3-1.343-3-3 1.343-3 3-3 3 1.343 3 3z"></path>
<path d="M32 28h-24v-4l7-12 8 10h2l7-6z"></path>
</symbol>
<symbol id="prices" viewBox="0 0 40 32">
<path d="M38.5 0h-12c-0.825 0-1.977 0.477-2.561 1.061l-14.879 14.879c-0.583 0.583-0.583 1.538 0 2.121l12.879 12.879c0.583 0.583 1.538 0.583 2.121 0l14.879-14.879c0.583-0.583 1.061-1.736 1.061-2.561v-12c0-0.825-0.675-1.5-1.5-1.5zM31 12c-1.657 0-3-1.343-3-3s1.343-3 3-3 3 1.343 3 3-1.343 3-3 3z"></path>
<path d="M4 17l17-17h-2.5c-0.825 0-1.977 0.477-2.561 1.061l-14.879 14.879c-0.583 0.583-0.583 1.538 0 2.121l12.879 12.879c0.583 0.583 1.538 0.583 2.121 0l0.939-0.939-13-13z"></path>
</symbol>
<symbol id="contacts" viewBox="0 0 32 32">
<path d="M6 0v32h24v-32h-24zM18 8.010c2.203 0 3.99 1.786 3.99 3.99s-1.786 3.99-3.99 3.99-3.99-1.786-3.99-3.99 1.786-3.99 3.99-3.99v0zM24 24h-12v-2c0-2.209 1.791-4 4-4v0h4c2.209 0 4 1.791 4 4v2z"></path>
<path d="M2 2h3v6h-3v-6z"></path>
<path d="M2 10h3v6h-3v-6z"></path>
<path d="M2 18h3v6h-3v-6z"></path>
<path d="M2 26h3v6h-3v-6z"></path>
</symbol>
<symbol id="instagram" viewBox="0 0 32 32">
<path d="M16 2.881c4.275 0 4.781 0.019 6.462 0.094 1.563 0.069 2.406 0.331 2.969 0.55 0.744 0.288 1.281 0.638 1.837 1.194 0.563 0.563 0.906 1.094 1.2 1.838 0.219 0.563 0.481 1.412 0.55 2.969 0.075 1.688 0.094 2.194 0.094 6.463s-0.019 4.781-0.094 6.463c-0.069 1.563-0.331 2.406-0.55 2.969-0.288 0.744-0.637 1.281-1.194 1.837-0.563 0.563-1.094 0.906-1.837 1.2-0.563 0.219-1.413 0.481-2.969 0.55-1.688 0.075-2.194 0.094-6.463 0.094s-4.781-0.019-6.463-0.094c-1.563-0.069-2.406-0.331-2.969-0.55-0.744-0.288-1.281-0.637-1.838-1.194-0.563-0.563-0.906-1.094-1.2-1.837-0.219-0.563-0.481-1.413-0.55-2.969-0.075-1.688-0.094-2.194-0.094-6.463s0.019-4.781 0.094-6.463c0.069-1.563 0.331-2.406 0.55-2.969 0.288-0.744 0.638-1.281 1.194-1.838 0.563-0.563 1.094-0.906 1.838-1.2 0.563-0.219 1.412-0.481 2.969-0.55 1.681-0.075 2.188-0.094 6.463-0.094zM16 0c-4.344 0-4.887 0.019-6.594 0.094-1.7 0.075-2.869 0.35-3.881 0.744-1.056 0.412-1.95 0.956-2.837 1.85-0.894 0.888-1.438 1.781-1.85 2.831-0.394 1.019-0.669 2.181-0.744 3.881-0.075 1.713-0.094 2.256-0.094 6.6s0.019 4.887 0.094 6.594c0.075 1.7 0.35 2.869 0.744 3.881 0.413 1.056 0.956 1.95 1.85 2.837 0.887 0.887 1.781 1.438 2.831 1.844 1.019 0.394 2.181 0.669 3.881 0.744 1.706 0.075 2.25 0.094 6.594 0.094s4.888-0.019 6.594-0.094c1.7-0.075 2.869-0.35 3.881-0.744 1.050-0.406 1.944-0.956 2.831-1.844s1.438-1.781 1.844-2.831c0.394-1.019 0.669-2.181 0.744-3.881 0.075-1.706 0.094-2.25 0.094-6.594s-0.019-4.887-0.094-6.594c-0.075-1.7-0.35-2.869-0.744-3.881-0.394-1.063-0.938-1.956-1.831-2.844-0.887-0.887-1.781-1.438-2.831-1.844-1.019-0.394-2.181-0.669-3.881-0.744-1.712-0.081-2.256-0.1-6.6-0.1v0z"></path>
<path d="M16 7.781c-4.537 0-8.219 3.681-8.219 8.219s3.681 8.219 8.219 8.219 8.219-3.681 8.219-8.219c0-4.537-3.681-8.219-8.219-8.219zM16 21.331c-2.944 0-5.331-2.387-5.331-5.331s2.387-5.331 5.331-5.331c2.944 0 5.331 2.387 5.331 5.331s-2.387 5.331-5.331 5.331z"></path>
<path d="M26.462 7.456c0 1.060-0.859 1.919-1.919 1.919s-1.919-0.859-1.919-1.919c0-1.060 0.859-1.919 1.919-1.919s1.919 0.859 1.919 1.919z"></path>
</symbol>
<symbol id="telegram" viewBox="0 0 32 32">
<path d="M16 0c-8.838 0-16 7.162-16 16s7.162 16 16 16 16-7.163 16-16-7.163-16-16-16zM23.863 10.969l-2.625 12.369c-0.181 0.881-0.712 1.087-1.45 0.681l-4-2.956-1.919 1.869c-0.225 0.219-0.4 0.4-0.8 0.4-0.519 0-0.431-0.194-0.606-0.688l-1.363-4.475-3.956-1.231c-0.856-0.262-0.862-0.85 0.194-1.269l15.412-5.95c0.7-0.319 1.381 0.169 1.113 1.25z"></path>
</symbol>
<symbol id="viber" viewBox="0 0 32 32">
<path d="M15.197 0.003c-2.567 0.035-8.089 0.456-11.179 3.287-2.293 2.28-3.095 5.641-3.188 9.804-0.080 4.147-0.173 11.933 7.333 14.055v3.227c0 0-0.051 1.293 0.803 1.56 1.053 0.333 1.653-0.665 2.653-1.732l1.867-2.107c5.133 0.427 9.067-0.559 9.52-0.705 1.040-0.333 6.908-1.081 7.868-8.869 0.987-8.041-0.48-13.108-3.12-15.401l-0.013-0.003c-0.8-0.733-4-3.067-11.16-3.093 0 0-0.528-0.033-1.384-0.021zM15.287 2.265c0.727-0.004 1.173 0.027 1.173 0.027 6.053 0.013 8.948 1.84 9.628 2.453 2.227 1.905 3.371 6.475 2.533 13.189-0.8 6.507-5.56 6.92-6.44 7.2-0.373 0.12-3.84 0.973-8.203 0.693 0 0-3.252 3.921-4.265 4.935-0.16 0.173-0.347 0.227-0.467 0.2-0.173-0.040-0.227-0.253-0.213-0.547l0.027-5.359c-6.361-1.76-5.988-8.403-5.921-11.869 0.080-3.467 0.733-6.309 2.667-8.229 2.609-2.36 7.3-2.68 9.481-2.693zM15.767 5.732c-0 0-0.001 0-0.001 0-0.22 0-0.399 0.178-0.399 0.399 0 0 0 0 0 0v0c0 0.221 0.179 0.4 0.4 0.4v0c0.043-0.001 0.093-0.001 0.143-0.001 2.034 0 3.88 0.809 5.232 2.123l-0.002-0.002c1.453 1.413 2.161 3.307 2.188 5.787 0 0.221 0.179 0.4 0.4 0.4v0-0.012c0.221 0 0.4-0.179 0.4-0.4v0c0.005-0.109 0.008-0.236 0.008-0.364 0-2.326-0.923-4.436-2.423-5.985l0.002 0.002c-1.587-1.547-3.589-2.347-5.948-2.347zM10.495 6.652c-0.054-0.008-0.116-0.013-0.18-0.013-0.236 0-0.457 0.064-0.646 0.176l0.006-0.003h-0.016c-0.547 0.32-1.051 0.72-1.531 1.253-0.36 0.427-0.561 0.852-0.615 1.265-0.009 0.064-0.014 0.137-0.014 0.212 0 0.182 0.029 0.357 0.084 0.521l-0.003-0.012 0.027 0.013c0.458 1.331 0.998 2.476 1.646 3.549l-0.046-0.082c0.895 1.608 1.922 2.996 3.101 4.237l-0.008-0.009 0.040 0.053 0.053 0.040 0.080 0.080c1.236 1.174 2.628 2.205 4.136 3.053l0.104 0.054c1.76 0.96 2.829 1.413 3.469 1.6v0.013c0.187 0.053 0.357 0.080 0.531 0.080 0.57-0.043 1.079-0.274 1.471-0.631l-0.002 0.002c0.52-0.467 0.933-0.984 1.24-1.531v-0.013c0.307-0.573 0.2-1.121-0.24-1.495-0.845-0.742-1.782-1.421-2.781-2.007l-0.085-0.046c-0.68-0.373-1.373-0.147-1.653 0.227l-0.6 0.759c-0.307 0.373-0.867 0.32-0.867 0.32l-0.016 0.013c-4.16-1.067-5.267-5.279-5.267-5.279s-0.053-0.573 0.333-0.867l0.747-0.6c0.36-0.293 0.613-0.987 0.227-1.667-0.631-1.084-1.31-2.022-2.071-2.887l0.017 0.020c-0.166-0.204-0.399-0.349-0.665-0.399l-0.007-0.001zM16.459 7.839c-0.22 0.001-0.399 0.18-0.399 0.4s0.179 0.4 0.4 0.4c0 0 0.001 0 0.001 0h-0c1.388 0.025 2.636 0.607 3.532 1.532l0.001 0.001c0.75 0.825 1.209 1.926 1.209 3.134 0 0.103-0.003 0.205-0.010 0.306l0.001-0.014c0.001 0.22 0.18 0.399 0.4 0.399 0 0 0 0 0 0v0l0.013 0.016c0 0 0 0 0 0 0.221 0 0.4-0.179 0.4-0.4 0-0 0-0.001 0-0.001v0c0.040-1.587-0.453-2.92-1.427-3.987s-2.333-1.667-4.067-1.787c-0.008-0.001-0.018-0.001-0.028-0.001s-0.020 0-0.029 0.001l0.001-0zM17.112 9.997c-0.004-0-0.008-0-0.012-0-0.225 0-0.407 0.182-0.407 0.408 0 0.221 0.176 0.401 0.395 0.407h0.001c1.32 0.067 1.96 0.733 2.040 2.107 0.007 0.215 0.184 0.387 0.4 0.387 0 0 0 0 0 0h0.013c0.215-0.007 0.388-0.183 0.388-0.4 0-0.009-0-0.019-0.001-0.028l0 0.001c-0.093-1.787-1.067-2.788-2.8-2.881-0.002-0-0.005-0-0.008-0s-0.006 0-0.008 0h0z"></path>
</symbol>
<symbol id="icon-menu" viewBox="0 0 32 32">
<path d="M2 6h28v6h-28zM2 14h28v6h-28zM2 22h28v6h-28z"></path>
</symbol>
<symbol id="icon-cross" viewBox="0 0 32 32">
<path d="M31.708 25.708c-0-0-0-0-0-0l-9.708-9.708 9.708-9.708c0-0 0-0 0-0 0.105-0.105 0.18-0.227 0.229-0.357 0.133-0.356 0.057-0.771-0.229-1.057l-4.586-4.586c-0.286-0.286-0.702-0.361-1.057-0.229-0.13 0.048-0.252 0.124-0.357 0.228 0 0-0 0-0 0l-9.708 9.708-9.708-9.708c-0-0-0-0-0-0-0.105-0.104-0.227-0.18-0.357-0.228-0.356-0.133-0.771-0.057-1.057 0.229l-4.586 4.586c-0.286 0.286-0.361 0.702-0.229 1.057 0.049 0.13 0.124 0.252 0.229 0.357 0 0 0 0 0 0l9.708 9.708-9.708 9.708c-0 0-0 0-0 0-0.104 0.105-0.18 0.227-0.229 0.357-0.133 0.355-0.057 0.771 0.229 1.057l4.586 4.586c0.286 0.286 0.702 0.361 1.057 0.229 0.13-0.049 0.252-0.124 0.357-0.229 0-0 0-0 0-0l9.708-9.708 9.708 9.708c0 0 0 0 0 0 0.105 0.105 0.227 0.18 0.357 0.229 0.356 0.133 0.771 0.057 1.057-0.229l4.586-4.586c0.286-0.286 0.362-0.702 0.229-1.057-0.049-0.13-0.124-0.252-0.229-0.357z"></path>
</symbol>
<symbol id="logo" viewBox="0 0 32 32">
<path d="M13.779 4.224c-3.565 0.544-6.739 2.592-8.774 5.677-1.485 2.259-2.214 5.094-2.010 7.814 0.25 3.232 1.491 5.958 3.706 8.154 0.845 0.838 1.382 1.274 2.259 1.824 2.835 1.792 6.438 2.394 9.722 1.619 1.44-0.339 2.349-0.723 4.038-1.709 0.909-0.531 1.984-1.53 3.29-3.053 0.275-0.326 1.107-1.773 1.402-2.438 1.018-2.304 1.35-4.755 0.973-7.232-0.608-4.006-3.098-7.456-6.771-9.376-1.325-0.691-2.566-1.088-4.083-1.312-0.947-0.134-2.739-0.122-3.75 0.032zM16.973 4.883c0.563 0.045 1.779 0.269 1.965 0.365 0.058 0.032 0.173 0.070 0.262 0.090 0.096 0.019 0.205 0.122 0.275 0.243 0.064 0.115 0.205 0.314 0.307 0.435 0.134 0.154 0.115 0.109-0.070-0.16-0.141-0.211-0.237-0.39-0.198-0.403 0.128-0.045 1.728 0.64 1.984 0.845 0.070 0.058 0.058 0.077-0.064 0.109-0.115 0.032-0.077 0.045 0.134 0.051 0.25 0.006 0.384 0.064 0.864 0.397 0.723 0.499 1.261 0.934 1.35 1.088 0.032 0.070 0.077 0.109 0.096 0.096 0.019-0.019 0.218 0.154 0.442 0.378s0.397 0.429 0.378 0.442c-0.013 0.019-0.141 0.006-0.282-0.026-0.141-0.038-0.384-0.070-0.544-0.083-0.16-0.019-0.224-0.013-0.141 0s0.166 0.070 0.186 0.128c0.026 0.064 0.051 0.070 0.083 0.019 0.032-0.058 0.141-0.058 0.442 0.006 0.384 0.070 0.41 0.090 0.736 0.499 0.486 0.608 0.954 1.331 0.909 1.402-0.019 0.038 0.006 0.077 0.058 0.102 0.115 0.038 0.55 0.896 0.838 1.651 0.243 0.627 0.25 0.653 0.141 0.589-0.045-0.026-0.032 0.006 0.026 0.077 0.128 0.147 0.333 0.896 0.467 1.702 0.096 0.595 0.205 2.483 0.147 2.483-0.019 0-0.173-0.205-0.339-0.448-0.166-0.25-0.314-0.448-0.333-0.448-0.038 0 0.013 0.077 0.371 0.608l0.301 0.448-0.051 0.512c-0.064 0.678-0.262 1.696-0.333 1.696-0.026 0-0.051 0.083-0.051 0.192 0 0.403-0.787 2.387-0.851 2.138-0.019-0.077-0.032-0.045-0.038 0.083-0.006 0.218-0.23 0.659-0.339 0.659-0.032 0-0.045 0.026-0.019 0.064 0.070 0.109-0.774 1.312-1.382 1.952-0.166 0.173-0.422 0.454-0.576 0.614-0.499 0.525-1.754 1.491-1.856 1.434-0.026-0.019-0.058 0.006-0.077 0.058-0.058 0.141-0.832 0.55-1.043 0.55-0.122 0-0.154 0.019-0.102 0.051 0.090 0.058 0.038 0.090-0.723 0.41-0.73 0.307-1.203 0.448-1.408 0.41-0.122-0.026-0.16-0.019-0.102 0.019 0.070 0.045 0.064 0.064-0.032 0.090-0.25 0.077-1.101 0.23-1.651 0.307-1.094 0.141-3.731-0.026-4.147-0.262-0.064-0.038-0.166-0.064-0.23-0.064-0.154 0-0.954-0.25-1.51-0.474-0.979-0.39-2.099-1.050-2.995-1.754-0.275-0.211-0.371-0.333-0.378-0.454-0.006-0.090-0.032-0.237-0.064-0.326-0.038-0.115-0.045-0.077-0.013 0.122l0.032 0.288-0.294-0.262c-0.166-0.147-0.352-0.333-0.422-0.422-0.122-0.154-0.122-0.166-0.019-0.192 0.077-0.019 0.058-0.032-0.051-0.038-0.186-0.006-0.365-0.186-0.928-0.934-0.48-0.646-0.602-0.832-0.602-0.96 0-0.051-0.026-0.096-0.064-0.096-0.032 0-0.064-0.058-0.064-0.134 0-0.070-0.026-0.109-0.064-0.090-0.122 0.077-0.966-1.875-0.934-2.157 0.013-0.109-0.006-0.16-0.058-0.141-0.122 0.051-0.57-2.061-0.538-2.541 0.013-0.134 0-0.262-0.026-0.288-0.115-0.115 0.013-2.323 0.179-3.085 0.083-0.371 0.128-0.557 0.262-1.024 0.013-0.045 0.019-0.083 0.019-0.096 0.006-0.083 0.378-1.069 0.595-1.562 0.25-0.582 0.275-0.614 0.314-0.435 0.038 0.173 0.045 0.16 0.051-0.090 0.006-0.23 0.083-0.397 0.48-0.992 0.531-0.806 0.749-1.062 0.915-1.069 0.109 0 0.109-0.006 0-0.051-0.102-0.038-0.006-0.16 0.576-0.742 0.8-0.813 1.203-1.165 1.875-1.613 0.678-0.454 0.845-0.531 1.197-0.538 0.186-0.006 0.237-0.026 0.134-0.038s-0.179-0.051-0.179-0.077c0-0.115 1.792-0.838 2.074-0.838 0.083 0 0.166-0.032 0.179-0.064 0.032-0.096 1.485-0.39 2.093-0.416 0.294-0.019 0.55-0.045 0.576-0.064 0.038-0.038 0.922-0.013 1.875 0.051z"></path>
<path d="M16.102 5.19c-0.173 0.102-0.346 0.179-0.397 0.16s-0.070 0-0.051 0.058c0.019 0.051-0.038 0.128-0.147 0.186-0.096 0.051-0.147 0.096-0.115 0.102 0.038 0 0.134-0.045 0.211-0.102 0.083-0.058 0.186-0.083 0.237-0.064s0.077 0 0.058-0.045c-0.013-0.045 0.102-0.16 0.262-0.256 0.25-0.16 0.339-0.237 0.269-0.237-0.013 0-0.16 0.090-0.326 0.198zM15.373 5.158c0.064 0.064 0.128 0.102 0.141 0.083 0.019-0.019-0.032-0.070-0.109-0.115-0.134-0.083-0.134-0.077-0.032 0.032zM12 5.702c-0.026 0.038-0.032 0.077-0.013 0.096 0.013 0.019 0.045-0.013 0.064-0.070 0.045-0.109 0.006-0.128-0.051-0.026zM14.81 5.907c-0.205 0.026-0.525 0.038-0.71 0.032-0.179-0.013-0.326 0.006-0.32 0.038s-0.115 0.083-0.275 0.115-0.563 0.141-0.909 0.25c-0.717 0.218-1.011 0.237-1.018 0.070 0-0.064-0.019-0.077-0.038-0.032-0.013 0.045-0.090 0.083-0.16 0.083-0.173 0-0.102 0.077 0.090 0.096 0.326 0.032 0.339 0.038 0.186 0.102-0.090 0.032-0.198 0.045-0.243 0.032-0.045-0.019-0.083-0.006-0.083 0.026s-0.23 0.179-0.512 0.32-0.678 0.365-0.877 0.493c-0.205 0.134-0.384 0.243-0.41 0.243-0.045 0-1.318 1.050-1.574 1.299-0.115 0.115-0.211 0.23-0.211 0.256 0 0.032-0.090 0.134-0.198 0.243-0.416 0.384-1.088 1.363-1.504 2.17-0.128 0.243-0.288 0.525-0.352 0.614s-0.102 0.186-0.083 0.205c0.019 0.019-0.013 0.115-0.070 0.218l-0.102 0.179 0.026-0.205c0.013-0.115 0-0.192-0.026-0.173-0.026 0.013-0.064-0.038-0.077-0.115-0.026-0.141-0.026-0.141-0.038 0.013 0 0.090 0.019 0.256 0.051 0.371 0.045 0.154 0.038 0.282-0.032 0.48-0.096 0.269-0.358 1.344-0.435 1.792-0.026 0.134-0.064 0.23-0.090 0.211-0.026-0.013-0.032 0.173-0.026 0.422 0.026 0.429 0.013 0.461-0.224 0.806-0.352 0.518-0.352 0.525-0.275 0.525 0.032 0 0.064-0.026 0.064-0.064 0-0.083 0.339-0.57 0.403-0.576 0.026 0 0.045 0.294 0.045 0.653 0.006 0.819 0.134 1.85 0.314 2.496 0.166 0.621 0.435 1.376 0.55 1.6 0.109 0.192 0.128 0.333 0.032 0.275-0.032-0.019-0.070-0.102-0.070-0.179-0.006-0.109-0.013-0.115-0.038-0.026-0.013 0.058-0.058 0.090-0.096 0.070-0.045-0.032-0.051-0.013-0.013 0.045 0.032 0.051 0.051 0.147 0.045 0.218-0.006 0.102-0.006 0.102 0.019 0.019 0.070-0.23 0.205-0.122 0.506 0.397 0.134 0.23 0.403 0.659 0.602 0.947 0.198 0.294 0.39 0.582 0.422 0.634 0.122 0.186 1.626 1.747 1.683 1.747 0.077 0 0.384 0.294 0.48 0.467 0.070 0.128 0.096 0.154 0.077 0.064-0.032-0.122 0.013-0.109 0.371 0.128 0.461 0.307 1.504 0.896 1.606 0.915 0.090 0.019 0.902 0.326 1.158 0.442 0.109 0.051 0.666 0.179 1.242 0.288 1.069 0.211 1.696 0.243 3.021 0.154 0.403-0.026 0.538 0 0.883 0.134 0.23 0.090 0.422 0.147 0.442 0.134 0.013-0.013-0.16-0.096-0.384-0.173l-0.403-0.147 0.576-0.109c0.55-0.102 1.395-0.326 1.664-0.442 1.133-0.48 1.485-0.659 2.125-1.062 0.416-0.262 0.864-0.57 0.998-0.685 0.134-0.109 0.269-0.205 0.301-0.205 0.038 0 0.115-0.070 0.179-0.16 0.058-0.090 0.198-0.25 0.301-0.352 0.109-0.109 0.352-0.365 0.544-0.582 0.192-0.211 0.461-0.448 0.595-0.531 0.243-0.147 0.314-0.224 0.141-0.16-0.051 0.026-0.096 0.019-0.096-0.006s0.192-0.352 0.429-0.723c0.845-1.344 1.35-2.662 1.568-4.070 0.045-0.275 0.090-0.454 0.115-0.397 0.019 0.051 0.026-0.435 0.026-1.082-0.006-0.653 0.006-1.171 0.032-1.158 0.019 0.013 0.038-0.064 0.038-0.173 0-0.115 0.026-0.275 0.051-0.365 0.032-0.122 0.019-0.115-0.045 0.032-0.102 0.218-0.134 0.173-0.198-0.32-0.096-0.755-0.493-2.157-0.838-2.944-0.090-0.205-0.525-0.96-0.826-1.414-0.192-0.294-0.314-0.538-0.269-0.538 0.038 0-0.019-0.058-0.128-0.128-0.115-0.070-0.211-0.154-0.211-0.186 0-0.026-0.282-0.346-0.621-0.704-0.346-0.358-0.595-0.659-0.563-0.672 0.038-0.019 0.006-0.032-0.058-0.032-0.070-0.006-0.288-0.154-0.493-0.326-0.205-0.179-0.39-0.32-0.416-0.32-0.019 0-0.179-0.096-0.346-0.218s-0.531-0.339-0.806-0.486c-0.634-0.346-0.806-0.531-0.55-0.595 0.058-0.013 0.045-0.019-0.038-0.013-0.096 0.013-0.198-0.051-0.314-0.186-0.16-0.192-0.16-0.192-0.051-0.013 0.134 0.218 0.045 0.314-0.218 0.23-0.090-0.032-0.467-0.154-0.838-0.275s-0.877-0.262-1.133-0.301c-0.256-0.045-0.454-0.102-0.442-0.122 0.045-0.077-2.125-0.115-2.624-0.051zM15.002 6.33c0.032 0.045-0.39 0.134-0.653 0.134-0.166 0 0-0.115 0.211-0.147 0.346-0.045 0.41-0.045 0.442 0.013zM16.448 6.336c0 0.038-0.147 0.058-0.333 0.058-0.288-0.006-0.314-0.013-0.147-0.058 0.282-0.070 0.48-0.070 0.48 0zM17.28 6.4c0.077 0.051 0.058 0.064-0.077 0.064-0.102 0-0.179-0.032-0.179-0.064 0-0.083 0.128-0.083 0.256 0zM17.76 6.464c0.102 0.045 0.077 0.051-0.109 0.045-0.128-0.006-0.218-0.032-0.198-0.064 0.032-0.058 0.141-0.051 0.307 0.019zM13.677 6.502c-0.019 0.019-0.077 0.026-0.122 0.006-0.051-0.019-0.032-0.038 0.038-0.038 0.070-0.006 0.109 0.013 0.083 0.032zM13.421 6.566c-0.019 0.019-0.077 0.026-0.122 0.006-0.051-0.019-0.032-0.038 0.038-0.038 0.070-0.006 0.109 0.013 0.083 0.032zM17.094 6.618c1.536 0.205 3.008 0.755 4.333 1.613 0.288 0.186 0.525 0.365 0.525 0.39 0 0.058-0.243 0.333-0.89 1.011-0.23 0.25-0.813 0.87-1.293 1.376-0.474 0.512-1.261 1.344-1.741 1.856l-0.87 0.928-0.006 0.454v0.454l0.467 0.442c0.25 0.237 1.293 1.229 2.304 2.195 1.018 0.973 1.901 1.773 1.971 1.786 0.39 0.064-0.186-0.563-2.579-2.803-0.173-0.154-0.307-0.314-0.307-0.346 0.006-0.038 0.25-0.326 0.55-0.64l0.544-0.57 0.685 0.666c0.378 0.365 1.069 1.037 1.53 1.485 0.538 0.518 0.89 0.813 0.954 0.8 0.275-0.051 0.288-0.038-2.195-2.451-0.397-0.384-0.723-0.71-0.723-0.73 0-0.045-0.038 0 1.824-1.99 0.774-0.826 1.498-1.6 1.606-1.715l0.192-0.218 0.16 0.218c0.934 1.235 1.664 3.13 1.856 4.8 0.102 0.934 0.045 2.464-0.128 3.27-0.57 2.675-2.125 5.011-4.352 6.522-1.082 0.736-3.213 1.587-3.974 1.587-0.128 0-0.128-0.077-0.128-4.032v-4.032h-2.816v8.186l-0.205-0.032c-0.794-0.134-1.312-0.256-1.901-0.448-2.643-0.89-4.813-2.797-6.022-5.306-0.755-1.568-1.075-3.136-1.005-4.954 0.064-1.722 0.467-3.13 1.344-4.678 0.595-1.062 0.557-1.139 0.557 1.037 0 1.043 0.019 1.939 0.038 1.997s0.096 0.102 0.16 0.102c0.115 0 0.122-0.077 0.122-1.888 0-1.581 0.013-1.888 0.090-1.843 0.045 0.026 0.275 0.224 0.506 0.435l0.416 0.384 0.026 1.389c0.013 1.005 0.038 1.414 0.102 1.472 0.179 0.179 0.218-0.051 0.205-1.286 0-0.672 0.013-1.222 0.032-1.222 0.038 0 2.65 2.355 3.821 3.437 0.237 0.224 0.454 0.403 0.48 0.403 0.032 0 0.371-0.352 0.755-0.781 0.39-0.429 0.768-0.845 0.851-0.922 0.141-0.147 0.141-0.147 0.141-2.426v-2.272h-0.32v1.856c0 1.018-0.019 1.856-0.038 1.856s-0.198-0.154-0.397-0.346c-0.205-0.186-0.448-0.416-0.557-0.506l-0.192-0.16-0.032-1.363c-0.026-1.005-0.051-1.363-0.109-1.382-0.166-0.058-0.218 0.326-0.198 1.344 0.013 0.55-0.006 1.005-0.038 1.005-0.051 0-0.704-0.576-1.798-1.594-0.218-0.198-0.742-0.672-1.165-1.056-0.429-0.384-0.762-0.73-0.742-0.762 0.077-0.122 1.126-0.755 1.76-1.056 1.856-0.89 3.827-1.21 5.818-0.947zM18.752 6.694c0 0.013-0.070 0.026-0.16 0.026s-0.16-0.026-0.16-0.058c0-0.026 0.070-0.038 0.16-0.019 0.090 0.013 0.16 0.038 0.16 0.051zM13.139 6.701c-0.045 0.013-0.122 0.013-0.16 0-0.045-0.019-0.013-0.032 0.077-0.032s0.122 0.013 0.083 0.032zM19.046 6.816c0.064 0.051 0.090 0.096 0.045 0.096-0.122 0-0.275-0.070-0.275-0.134 0-0.083 0.090-0.070 0.23 0.038zM20.32 6.784c0.051 0.083-0.032 0.083-0.16 0-0.083-0.051-0.083-0.064 0.013-0.064 0.058 0 0.128 0.026 0.147 0.064zM12.352 6.854c0 0.032-0.096 0.102-0.205 0.147-0.352 0.147-0.499 0.179-0.499 0.115 0-0.045 0.486-0.275 0.691-0.326 0.006-0.006 0.013 0.026 0.013 0.064zM20.115 7.194c0.269 0.109 0.397 0.23 0.237 0.23-0.109 0-0.64-0.282-0.64-0.339 0-0.032 0.019-0.045 0.051-0.032 0.026 0.006 0.179 0.070 0.352 0.141zM11.040 7.462c-0.173 0.134-0.352 0.23-0.352 0.192 0-0.077 0.288-0.294 0.378-0.294 0.083 0.006 0.077 0.026-0.026 0.102zM10.592 7.68c-0.019 0.032-0.070 0.064-0.102 0.064-0.038 0-0.045-0.032-0.026-0.064 0.019-0.038 0.070-0.064 0.102-0.064 0.038 0 0.045 0.026 0.026 0.064zM21.35 7.878c0.16 0.109 0.275 0.211 0.256 0.23-0.032 0.032-0.595-0.282-0.653-0.371-0.070-0.122 0.122-0.051 0.397 0.141zM9.696 8.288c-0.243 0.211-0.474 0.301-0.384 0.16 0.058-0.090 0.493-0.378 0.576-0.378 0.038 0-0.051 0.096-0.192 0.218zM22.432 8.653c0.262 0.198 0.352 0.307 0.243 0.307-0.070 0-0.64-0.506-0.576-0.512 0.026 0 0.179 0.096 0.333 0.205zM8.576 9.184c-0.16 0.16-0.294 0.262-0.307 0.23-0.026-0.070 0.435-0.512 0.531-0.518 0.032 0-0.070 0.128-0.224 0.288zM23.456 9.6c0.134 0.141 0.224 0.275 0.198 0.301-0.038 0.038-0.55-0.448-0.55-0.525 0-0.090 0.128-0.006 0.352 0.224zM7.744 10.048c-0.077 0.102-0.154 0.192-0.166 0.192-0.019 0 0.019-0.090 0.083-0.192 0.058-0.109 0.134-0.192 0.166-0.192s-0.006 0.083-0.083 0.192zM7.43 10.413c-0.051 0.096-0.064 0.096-0.070 0.013 0-0.109 0.064-0.205 0.115-0.16 0.013 0.019-0.006 0.083-0.045 0.147zM24.32 10.637c0.192 0.262 0.237 0.371 0.147 0.371-0.077 0-0.48-0.64-0.403-0.64 0.032 0 0.147 0.122 0.256 0.269zM7.040 10.976c0 0.090-0.41 0.685-0.435 0.621-0.026-0.083 0.307-0.653 0.39-0.653 0.026 0 0.045 0.013 0.045 0.032zM25.056 11.808c0.096 0.16 0.16 0.32 0.147 0.365-0.026 0.077-0.371-0.467-0.371-0.582 0-0.128 0.058-0.070 0.224 0.218zM6.336 12.192c0 0.096-0.288 0.672-0.339 0.672-0.032 0-0.045-0.038-0.026-0.083 0.198-0.499 0.256-0.621 0.307-0.621 0.032 0 0.058 0.013 0.058 0.032zM25.619 13.037c0.198 0.557 0.109 0.64-0.096 0.096-0.128-0.339-0.141-0.397-0.064-0.397 0.026 0 0.102 0.134 0.16 0.301zM5.818 13.517c0 0.045-0.058 0.224-0.122 0.403-0.090 0.237-0.122 0.282-0.122 0.16-0.006-0.224 0.115-0.64 0.186-0.64 0.038 0 0.064 0.038 0.058 0.077zM26.010 14.317c0.026 0.134 0.058 0.294 0.077 0.352 0.019 0.064 0.006 0.115-0.026 0.115-0.058 0-0.205-0.467-0.205-0.634 0-0.173 0.115-0.045 0.154 0.166zM5.434 15.136c0 0.032-0.026 0.019-0.058-0.032s-0.058-0.141-0.058-0.192c0-0.102 0.109 0.102 0.115 0.224zM5.35 15.539c-0.077 0.070-0.115-0.045-0.064-0.192l0.051-0.147 0.026 0.147c0.013 0.083 0.006 0.166-0.013 0.192zM26.272 15.776c0.045 0.314 0.019 0.493-0.058 0.41-0.058-0.064-0.096-0.762-0.045-0.762 0.032 0 0.083 0.16 0.102 0.352zM5.312 16.269c0 0.083-0.032 0.192-0.064 0.243-0.045 0.070-0.064 0.032-0.064-0.147 0-0.128 0.032-0.237 0.064-0.237 0.038 0 0.064 0.064 0.064 0.141zM26.304 17.184c0 0.237-0.026 0.416-0.064 0.416-0.070 0-0.090-0.723-0.019-0.787 0.077-0.083 0.083-0.045 0.083 0.371zM5.331 17.965c0.019 0.154 0.006 0.294-0.026 0.314s-0.058-0.032-0.058-0.115-0.019-0.262-0.038-0.403c-0.019-0.173-0.013-0.224 0.026-0.16 0.032 0.051 0.077 0.218 0.096 0.365zM26.208 18.445c-0.058 0.397-0.096 0.499-0.173 0.499-0.032 0-0.051-0.038-0.032-0.090 0.019-0.045 0.058-0.218 0.077-0.384 0.026-0.16 0.077-0.294 0.109-0.294 0.038 0 0.045 0.109 0.019 0.269zM5.536 19.373l0.032 0.307-0.090-0.256c-0.051-0.141-0.096-0.326-0.096-0.416-0.006-0.282 0.122 0.013 0.154 0.365zM14.957 19.277c0.365 0.378 0.493 0.813 0.493 1.683 0 0.704-0.019 0.845-0.269 1.766-0.218 0.806-0.269 1.101-0.269 1.536 0.006 0.902 0.352 1.69 0.966 2.157l0.275 0.218 0.109-0.218c0.179-0.346 0.282-0.41 0.474-0.282 0.090 0.058 0.16 0.166 0.16 0.243 0 0.166-0.173 0.371-0.314 0.371-0.23 0-0.288 0.102-0.198 0.32 0.083 0.198 0.096 0.205 0.429 0.179 0.371-0.032 0.461 0.038 0.141 0.102-0.525 0.102-0.71 0-0.787-0.416-0.026-0.154-0.096-0.256-0.205-0.32-0.32-0.166-0.774-0.742-0.979-1.235-0.358-0.864-0.346-1.261 0.122-3.034 0.186-0.723 0.205-0.851 0.179-1.536-0.032-0.819-0.147-1.19-0.454-1.485-0.096-0.090-0.173-0.179-0.173-0.211 0-0.096 0.109-0.038 0.301 0.16zM25.984 19.546c0 0.019-0.134 0.416-0.224 0.672-0.019 0.051-0.051 0.070-0.070 0.058-0.051-0.058 0.166-0.755 0.237-0.755 0.032 0 0.058 0.013 0.058 0.026zM6.042 20.787c0.026 0.077 0.019 0.141-0.013 0.141-0.083 0-0.269-0.474-0.262-0.659 0-0.109 0.032-0.083 0.115 0.115 0.064 0.141 0.134 0.32 0.16 0.403zM25.536 20.832c0 0.115-0.339 0.749-0.365 0.678-0.038-0.096 0.23-0.71 0.314-0.71 0.026 0 0.051 0.013 0.051 0.032zM6.451 21.658c0.166 0.282 0.243 0.518 0.147 0.461-0.083-0.051-0.326-0.512-0.326-0.614 0-0.109 0.045-0.070 0.179 0.154zM24.896 22.118c0 0.077-0.352 0.602-0.397 0.602-0.077 0-0.064-0.038 0.122-0.352 0.16-0.256 0.275-0.365 0.275-0.25zM7.226 22.95c0.115 0.16 0.192 0.314 0.166 0.333-0.032 0.038-0.134-0.083-0.371-0.448-0.198-0.301-0.019-0.198 0.205 0.115zM23.962 23.469c-0.102 0.128-0.205 0.262-0.23 0.301s-0.064 0.045-0.090 0.026c-0.019-0.026 0.070-0.179 0.198-0.339 0.288-0.346 0.39-0.339 0.122 0.013zM8.154 24.045c0.134 0.154 0.224 0.275 0.192 0.275-0.070 0-0.538-0.461-0.538-0.531 0-0.096 0.096-0.026 0.346 0.256zM23.232 24.314c0 0.032-0.128 0.16-0.288 0.288-0.346 0.288-0.384 0.192-0.045-0.122 0.237-0.224 0.333-0.269 0.333-0.166zM9.146 24.96c0.154 0.141 0.237 0.256 0.192 0.256-0.109 0-0.57-0.365-0.57-0.454 0-0.102 0.090-0.058 0.378 0.198zM22.016 25.35c-0.282 0.243-0.448 0.339-0.448 0.256 0-0.070 0.512-0.448 0.608-0.448 0.038 0-0.038 0.083-0.16 0.192zM10.24 25.741c0.186 0.115 0.301 0.218 0.262 0.23-0.090 0.032-0.646-0.294-0.646-0.371 0-0.090 0.026-0.083 0.384 0.141zM21.056 25.971c0 0.077-0.557 0.352-0.653 0.32-0.045-0.019 0.064-0.109 0.237-0.198 0.339-0.179 0.416-0.198 0.416-0.122zM11.475 26.4c0.275 0.115 0.39 0.224 0.237 0.224-0.109 0-0.64-0.282-0.64-0.339 0-0.032 0.026-0.045 0.051-0.032 0.026 0.006 0.186 0.077 0.352 0.147zM19.84 26.554c0 0.064-0.71 0.346-0.755 0.294-0.051-0.051-0.013-0.070 0.339-0.218 0.365-0.147 0.416-0.154 0.416-0.077zM12.717 26.861c0.186 0.058 0.339 0.128 0.339 0.16 0 0.070-0.038 0.064-0.429-0.058-0.186-0.058-0.339-0.128-0.339-0.16 0-0.070 0.038-0.064 0.429 0.058zM18.496 27.002c0 0.058-0.48 0.198-0.678 0.198s-0.026-0.096 0.314-0.166c0.186-0.045 0.339-0.077 0.352-0.083 0.006 0 0.013 0.019 0.013 0.051zM14.106 27.174c0.16 0.026 0.294 0.070 0.294 0.102 0 0.077-0.646 0-0.73-0.083-0.077-0.070 0.026-0.070 0.435-0.019zM15.661 27.174c-0.019 0.019-0.077 0.026-0.122 0.006-0.051-0.019-0.032-0.038 0.038-0.038 0.070-0.006 0.109 0.013 0.083 0.032zM15.597 27.373c-0.128 0.013-0.333 0.013-0.448 0-0.109-0.013 0-0.026 0.243-0.026 0.25 0 0.339 0.013 0.205 0.026z"></path>
<path d="M15.315 14.829c-0.39 0.134-0.87 0.589-1.050 0.992-0.218 0.493-0.211 1.178 0.019 1.619 0.365 0.704 0.934 1.050 1.715 1.056 0.621 0 1.011-0.173 1.427-0.64 0.71-0.787 0.634-1.958-0.179-2.675-0.16-0.141-0.429-0.307-0.589-0.358-0.365-0.128-0.986-0.122-1.344 0.006zM16.486 26.317c-0.115 0.166-0.134 0.371-0.032 0.371 0.262 0 0.41-0.288 0.224-0.442-0.070-0.064-0.109-0.045-0.192 0.070zM10.72 6.4c0.109 0.026 0.262 0.051 0.352 0.051 0.141 0 0.141-0.006-0.032-0.051-0.102-0.026-0.262-0.051-0.352-0.051-0.141 0-0.141 0.006 0.032 0.051zM21.043 6.509c0.038 0.013 0.115 0.013 0.16 0 0.038-0.019 0.006-0.032-0.083-0.032s-0.122 0.013-0.077 0.032zM20.723 6.573c0.038 0.013 0.115 0.013 0.16 0 0.038-0.019 0.006-0.032-0.083-0.032s-0.122 0.013-0.077 0.032zM21.76 6.816c0 0.032 0.032 0.109 0.064 0.16s0.064 0.064 0.064 0.032c0-0.038-0.032-0.109-0.064-0.16s-0.064-0.070-0.064-0.032zM9.702 7.072c-0.058 0.166-0.045 0.205 0.032 0.077 0.038-0.064 0.058-0.134 0.038-0.147-0.013-0.019-0.045 0.013-0.070 0.070zM21.952 7.264c0 0.032 0.032 0.109 0.064 0.16s0.064 0.064 0.064 0.032c0-0.038-0.032-0.109-0.064-0.16s-0.064-0.070-0.064-0.032zM22.080 7.61c0 0.038 0.026 0.083 0.064 0.102s0.045-0.006 0.026-0.058c-0.045-0.115-0.090-0.134-0.090-0.045zM8.006 7.974c0 0.070 0.019 0.090 0.038 0.038 0.019-0.045 0.013-0.102-0.006-0.122-0.019-0.026-0.038 0.013-0.032 0.083zM7.942 8.294c0 0.070 0.019 0.090 0.038 0.038 0.019-0.045 0.013-0.102-0.006-0.122-0.019-0.026-0.038 0.013-0.032 0.083zM23.885 8.512c0 0.090 0.013 0.122 0.032 0.077 0.013-0.038 0.013-0.115 0-0.16-0.019-0.038-0.032-0.006-0.032 0.083zM7.885 8.64c0 0.090 0.013 0.122 0.032 0.077 0.013-0.038 0.013-0.115 0-0.16-0.019-0.038-0.032-0.006-0.032 0.083zM23.283 8.685c0.038 0.013 0.115 0.013 0.16 0 0.038-0.019 0.006-0.032-0.083-0.032s-0.122 0.013-0.077 0.032zM7.616 9.005l-0.224 0.077 0.237-0.019c0.25-0.019 0.358-0.070 0.262-0.115-0.026-0.013-0.154 0.006-0.275 0.058zM24.013 9.152c0 0.090 0.013 0.122 0.032 0.077 0.013-0.038 0.013-0.115 0-0.16-0.019-0.038-0.032-0.006-0.032 0.083zM7.123 9.133c0.058 0.013 0.147 0.013 0.192 0 0.038-0.019-0.006-0.032-0.115-0.032-0.102 0-0.141 0.013-0.077 0.032zM6.771 9.197c0.038 0.013 0.115 0.013 0.16 0 0.038-0.019 0.006-0.032-0.083-0.032s-0.122 0.013-0.077 0.032zM24.077 9.536c0 0.090 0.013 0.122 0.032 0.077 0.013-0.038 0.013-0.115 0-0.16-0.019-0.038-0.032-0.006-0.032 0.083zM5.197 11.84c0 0.090 0.013 0.122 0.032 0.077 0.013-0.038 0.013-0.115 0-0.16-0.019-0.038-0.032-0.006-0.032 0.083zM26.573 11.904c0 0.090 0.013 0.122 0.032 0.077 0.013-0.038 0.013-0.115 0-0.16-0.019-0.038-0.032-0.006-0.032 0.083zM5.261 12.16c0 0.090 0.013 0.122 0.032 0.077 0.013-0.038 0.013-0.115 0-0.16-0.019-0.038-0.032-0.006-0.032 0.083zM26.502 12.262c0 0.070 0.019 0.090 0.038 0.038 0.019-0.045 0.013-0.102-0.006-0.122-0.019-0.026-0.038 0.013-0.032 0.083zM26.438 12.538c-0.006 0.051-0.045 0.070-0.115 0.045-0.090-0.038-0.083-0.013 0.026 0.096 0.166 0.173 0.211 0.154 0.141-0.070-0.026-0.090-0.045-0.122-0.051-0.070zM26.624 12.826c0 0.013 0.051 0.064 0.115 0.109 0.096 0.083 0.102 0.077 0.019-0.026s-0.134-0.134-0.134-0.083zM26.381 12.992c0 0.090 0.013 0.122 0.032 0.077 0.013-0.038 0.013-0.115 0-0.16-0.019-0.038-0.032-0.006-0.032 0.083zM26.317 13.312c0 0.090 0.013 0.122 0.032 0.077 0.013-0.038 0.013-0.115 0-0.16-0.019-0.038-0.032-0.006-0.032 0.083zM4.16 13.92c0 0.032 0.032 0.109 0.064 0.16s0.064 0.064 0.064 0.032c0-0.038-0.032-0.109-0.064-0.16s-0.064-0.070-0.064-0.032zM4.288 14.266c0 0.038 0.026 0.083 0.064 0.102s0.045-0.006 0.026-0.058c-0.045-0.115-0.090-0.134-0.090-0.045zM27.206 14.406c-0.038 0.115-0.058 0.218-0.045 0.23s0.058-0.064 0.096-0.179c0.038-0.115 0.058-0.218 0.045-0.23s-0.058 0.064-0.096 0.179zM4.48 14.688c0 0.032 0.032 0.109 0.064 0.16s0.064 0.064 0.064 0.032c0-0.038-0.032-0.109-0.064-0.16s-0.064-0.070-0.064-0.032zM27.046 14.816c-0.058 0.166-0.045 0.205 0.032 0.077 0.038-0.064 0.058-0.134 0.038-0.147-0.013-0.019-0.045 0.013-0.070 0.070zM26.918 15.136c-0.058 0.166-0.045 0.205 0.032 0.077 0.038-0.064 0.058-0.134 0.038-0.147-0.013-0.019-0.045 0.013-0.070 0.070zM26.88 18.784c0 0.032 0.032 0.109 0.064 0.16s0.064 0.064 0.064 0.032c0-0.038-0.032-0.109-0.064-0.16s-0.064-0.070-0.064-0.032zM4.646 19.68c-0.058 0.166-0.045 0.205 0.032 0.077 0.038-0.064 0.058-0.134 0.038-0.147-0.013-0.019-0.045 0.013-0.070 0.070zM4.518 20c-0.058 0.166-0.045 0.205 0.032 0.077 0.038-0.064 0.058-0.134 0.038-0.147-0.013-0.019-0.045 0.013-0.070 0.070zM26.182 20.71c0 0.070 0.019 0.090 0.038 0.038 0.019-0.045 0.013-0.102-0.006-0.122-0.019-0.026-0.038 0.013-0.032 0.083zM4.992 21.056c0.090 0.070 0.218 0.16 0.288 0.198 0.090 0.045 0.077 0.026-0.032-0.070-0.090-0.070-0.218-0.16-0.288-0.198-0.090-0.045-0.077-0.026 0.032 0.070zM5.446 21.99c0 0.070 0.019 0.090 0.038 0.038 0.019-0.045 0.013-0.102-0.006-0.122-0.019-0.026-0.038 0.013-0.032 0.083zM5.382 22.374c0 0.070 0.019 0.090 0.038 0.038 0.019-0.045 0.013-0.102-0.006-0.122-0.019-0.026-0.038 0.013-0.032 0.083zM25.792 22.976c-0.051 0.032-0.064 0.064-0.032 0.064 0.038 0 0.109-0.032 0.16-0.064s0.070-0.064 0.032-0.064c-0.032 0-0.109 0.032-0.16 0.064zM5.613 23.11c0.045 0.045 0.096 0.064 0.115 0.045s-0.013-0.058-0.077-0.077c-0.090-0.038-0.096-0.032-0.038 0.032zM25.408 23.136c-0.090 0.051-0.128 0.090-0.096 0.090 0.038 0 0.134-0.038 0.224-0.090s0.134-0.090 0.096-0.090c-0.032 0-0.134 0.038-0.224 0.090zM6.074 23.302c0.154 0.070 0.294 0.115 0.307 0.096 0.026-0.026-0.467-0.23-0.544-0.224-0.026 0 0.083 0.058 0.237 0.128zM25.056 23.296c-0.019 0.038 0.006 0.045 0.058 0.026 0.115-0.045 0.134-0.090 0.045-0.090-0.038 0-0.083 0.026-0.102 0.064zM6.528 23.488c0.051 0.032 0.128 0.064 0.16 0.064 0.038 0 0.019-0.032-0.032-0.064s-0.122-0.064-0.16-0.064c-0.032 0-0.019 0.032 0.032 0.064zM6.848 23.616c0.051 0.032 0.128 0.064 0.16 0.064 0.038 0 0.019-0.032-0.032-0.064s-0.122-0.064-0.16-0.064c-0.032 0-0.019 0.032 0.032 0.064zM24.352 24.064c-0.026 0.109-0.032 0.218-0.013 0.23 0.013 0.019 0.045-0.064 0.070-0.173 0.019-0.115 0.026-0.218 0.013-0.23-0.013-0.019-0.045 0.064-0.070 0.173zM7.565 24.448c0 0.090 0.013 0.122 0.032 0.077 0.013-0.038 0.013-0.115 0-0.16-0.019-0.038-0.032-0.006-0.032 0.083zM24.269 24.576c0 0.090 0.013 0.122 0.032 0.077 0.013-0.038 0.013-0.115 0-0.16-0.019-0.038-0.032-0.006-0.032 0.083zM7.629 24.768c0 0.090 0.013 0.122 0.032 0.077 0.013-0.038 0.013-0.115 0-0.16-0.019-0.038-0.032-0.006-0.032 0.083zM24.205 24.96c0 0.090 0.013 0.122 0.032 0.077 0.013-0.038 0.013-0.115 0-0.16-0.019-0.038-0.032-0.006-0.032 0.083zM7.347 25.069c0.045 0.019 0.102 0.013 0.122-0.006 0.026-0.019-0.013-0.038-0.083-0.032-0.070 0-0.090 0.019-0.038 0.038zM7.654 25.075c-0.013 0.026-0.006 0.090 0.019 0.134 0.038 0.064 0.064 0.058 0.090-0.019 0.038-0.102-0.051-0.205-0.109-0.115zM8.051 25.197c0.045 0.019 0.102 0.013 0.122-0.006 0.026-0.019-0.013-0.038-0.083-0.032-0.070 0-0.090 0.019-0.038 0.038zM8.371 25.261c0.045 0.019 0.102 0.013 0.122-0.006 0.026-0.019-0.013-0.038-0.083-0.032-0.070 0-0.090 0.019-0.038 0.038zM23.731 25.325c0.038 0.013 0.115 0.013 0.16 0 0.038-0.019 0.006-0.032-0.083-0.032s-0.122 0.013-0.077 0.032zM23.411 25.389c0.045 0.019 0.102 0.013 0.122-0.006 0.026-0.019-0.013-0.038-0.083-0.032-0.070 0-0.090 0.019-0.038 0.038zM22.765 25.453c-0.026 0.019-0.045 0.083-0.045 0.128 0 0.077 0.019 0.077 0.096-0.006 0.051-0.051 0.096-0.109 0.096-0.128 0-0.051-0.096-0.045-0.147 0.006zM23.091 25.453c0.045 0.019 0.102 0.013 0.122-0.006 0.026-0.019-0.013-0.038-0.083-0.032-0.070 0-0.090 0.019-0.038 0.038zM22.63 25.824c-0.058 0.166-0.045 0.205 0.032 0.077 0.038-0.064 0.058-0.134 0.038-0.147-0.013-0.019-0.045 0.013-0.070 0.070zM22.413 26.381c-0.077 0.179-0.128 0.339-0.115 0.352s0.083-0.122 0.16-0.307c0.077-0.179 0.134-0.339 0.122-0.352-0.019-0.013-0.090 0.128-0.166 0.307zM9.408 26.208c0 0.032 0.032 0.109 0.064 0.16s0.064 0.064 0.064 0.032c0-0.038-0.032-0.109-0.064-0.16s-0.064-0.070-0.064-0.032zM19.571 27.309c0.038 0.013 0.115 0.013 0.16 0 0.038-0.019 0.006-0.032-0.083-0.032s-0.122 0.013-0.077 0.032zM20.16 27.392c0.051 0.032 0.154 0.064 0.218 0.064 0.166 0 0.115-0.038-0.122-0.090-0.141-0.032-0.166-0.026-0.096 0.026zM12.147 27.501c0.038 0.013 0.115 0.013 0.16 0 0.038-0.019 0.006-0.032-0.083-0.032s-0.122 0.013-0.077 0.032zM11.533 27.578c-0.064 0.038-0.045 0.064 0.077 0.083 0.134 0.026 0.154 0.019 0.096-0.051-0.083-0.102-0.070-0.102-0.173-0.032zM11.827 27.565c0.045 0.019 0.102 0.013 0.122-0.006 0.026-0.019-0.013-0.038-0.083-0.032-0.070 0-0.090 0.019-0.038 0.038zM11.123 27.693c0.038 0.013 0.115 0.013 0.16 0 0.038-0.019 0.006-0.032-0.083-0.032s-0.122 0.013-0.077 0.032zM10.803 27.757c0.045 0.019 0.102 0.013 0.122-0.006 0.026-0.019-0.013-0.038-0.083-0.032-0.070 0-0.090 0.019-0.038 0.038zM14.272 27.904c-0.051 0.032-0.064 0.064-0.032 0.064 0.038 0 0.109-0.032 0.16-0.064s0.070-0.064 0.032-0.064c-0.032 0-0.109 0.032-0.16 0.064zM13.792 28.096c-0.019 0.038 0.006 0.045 0.058 0.026 0.115-0.045 0.134-0.090 0.045-0.090-0.038 0-0.083 0.026-0.102 0.064zM18.176 28.147c0.051 0.032 0.166 0.083 0.256 0.102 0.109 0.032 0.128 0.026 0.064-0.013-0.051-0.032-0.166-0.083-0.256-0.102-0.109-0.032-0.128-0.026-0.064 0.013zM13.504 28.224c-0.051 0.032-0.064 0.064-0.032 0.064 0.038 0 0.109-0.032 0.16-0.064s0.070-0.064 0.032-0.064c-0.032 0-0.109 0.032-0.16 0.064zM15.552 28.25c0 0.013 0.051 0.064 0.115 0.109 0.096 0.083 0.102 0.077 0.019-0.026s-0.134-0.134-0.134-0.083zM13.216 28.352c-0.102 0.045-0.109 0.058-0.019 0.058 0.058 0.006 0.128-0.026 0.147-0.058 0.045-0.070 0.045-0.070-0.128 0zM15.808 28.48c0 0.032 0.032 0.064 0.064 0.064 0.038 0 0.064-0.032 0.064-0.064 0-0.038-0.026-0.064-0.064-0.064-0.032 0-0.064 0.026-0.064 0.064z"></path>
</symbol>
<symbol id="icon-speed" viewBox="0 0 32 32">
<path d="M26.605 5.395c-2.662-2.697-6.358-4.368-10.444-4.368-0.104 0-0.208 0.001-0.311 0.003l0.015-0c-0.066-0.017-0.142-0.026-0.22-0.026s-0.154 0.010-0.226 0.028l0.006-0.001c-3.935 0.099-7.467 1.744-10.028 4.348l-0.002 0.002c-9.5 9.5-2.56 25.85 10.865 25.595h0.055c0.055 0.015 0.119 0.024 0.184 0.025h0.001c13-0.44 19.39-16.305 10.105-25.605zM14.605 3.065c-0.727 6.063-5.486 10.821-11.487 11.539l-0.063 0.006c0.732-6.060 5.489-10.816 11.487-11.539l0.063-0.006zM3 16.62c7.040-0.55 13.050-6.555 13.6-13.595 7.11 0.28 11.965 6.105 12.34 12.36-7.025 0.55-13 6.55-13.58 13.575-6.22-0.375-12.045-5.195-12.36-12.34zM17.395 28.93c0.726-6.056 5.479-10.809 11.472-11.529l0.063-0.006c-0.395 5.775-5.76 11.14-11.535 11.535z"></path>
<path d="M13.5 22.22l-1.155-1.155 3.655-3.66 1.155 1.155c0.181 0.181 0.431 0.293 0.707 0.293 0.553 0 1.001-0.448 1.001-1.001 0-0.276-0.112-0.526-0.293-0.707v0l-1.165-1.145 3.66-3.66 1.155 1.16c0.18 0.181 0.429 0.294 0.705 0.295h0c0.002 0 0.004 0 0.006 0 0.552 0 1-0.448 1-1 0-0.278-0.113-0.529-0.296-0.71l-0-0-1.135-1.17 1.28-1.28c0.181-0.181 0.293-0.431 0.293-0.707 0-0.553-0.448-1.001-1.001-1.001-0.276 0-0.526 0.112-0.707 0.293v0l-1.3 1.28-1.135-1.14c-0.183-0.184-0.436-0.298-0.715-0.298-0.556 0-1.008 0.451-1.008 1.008 0 0.277 0.112 0.528 0.293 0.71l1.135 1.135-3.635 3.66-1.135-1.135c-0.181-0.181-0.431-0.293-0.707-0.293-0.553 0-1.001 0.448-1.001 1.001 0 0.276 0.112 0.526 0.293 0.707v0l1.125 1.145c-1.315 1.315-2.595 2.6-3.66 3.66l-1.135-1.16c-0.181-0.181-0.431-0.293-0.707-0.293-0.553 0-1.001 0.448-1.001 1.001 0 0.276 0.112 0.526 0.293 0.707v0l1.135 1.15-1.265 1.265c-0.181 0.181-0.293 0.431-0.293 0.707 0 0.553 0.448 1.001 1.001 1.001 0.276 0 0.526-0.112 0.707-0.293v0l1.265-1.245 1.155 1.155c0.181 0.179 0.429 0.29 0.704 0.29 0.002 0 0.004 0 0.006-0h-0c0.009 0 0.021 0 0.032 0 0.552 0 1-0.448 1-1 0-0.285-0.12-0.543-0.311-0.725l-0-0z"></path>
</symbol>
<symbol id="icon-quality" viewBox="0 0 32 32">
<path d="M30.965 5.75c-0.010-0.358-0.206-0.668-0.495-0.837l-0.005-0.003s-4.5-2.605-4.5-2.61c-0.131-0.077-0.29-0.122-0.458-0.122-0.079 0-0.155 0.010-0.228 0.029l0.006-0.001h-0.060c-0.091 0.031-0.167 0.063-0.241 0.1l0.011-0.005-8.995 5.2-9-5.185c-0.052-0.028-0.113-0.056-0.176-0.077l-0.009-0.003h-0.11c-0.067-0.017-0.143-0.027-0.222-0.027-0.172 0-0.334 0.047-0.472 0.129l0.004-0.002s-4.515 2.58-4.515 2.575c-0.214 0.136-0.375 0.341-0.453 0.582l-0.002 0.008c-0.020 0.083-0.036 0.182-0.045 0.283l-0 0.007v16.15c0 0.368 0.199 0.689 0.495 0.862l0.005 0.003 4.025 2.325c0.145 0.078 0.316 0.127 0.497 0.135l0.003 0c0.006 0 0.013 0 0.020 0 0.253 0 0.483-0.101 0.651-0.265l-0 0c0.202-0.183 0.329-0.447 0.33-0.74v-6.635c0.008-0.006 0.017-0.009 0.027-0.009s0.020 0.004 0.028 0.009l-0-0c1.315 0.715 2.31 1.92 2.285 3.47 0 0.025 0 5.67 0 5.69 0.006 0.362 0.203 0.677 0.495 0.847l0.005 0.003 5.555 3.21c0.143 0.099 0.321 0.158 0.512 0.158 0.024 0 0.048-0.001 0.071-0.003l-0.003 0c0.006 0 0.014 0 0.021 0 0.194 0 0.374-0.060 0.522-0.162l-0.003 0.002 5.55-3.205c0.075-0.047 0.141-0.098 0.2-0.155l-0 0v-0.025c0.17-0.169 0.275-0.402 0.275-0.66v0s0-5.68 0-5.7c0-1.57 0.97-2.75 2.29-3.475 0 0 0.030 0 0.075 0.040v6.59c0.003 0.305 0.148 0.575 0.373 0.748l0.002 0.002c0.159 0.146 0.373 0.236 0.607 0.236 0.012 0 0.023-0 0.035-0.001l-0.002 0c0.127-0.004 0.247-0.029 0.357-0.073l-0.007 0.003 0.065-0.030 0.085-0.035 4-2.325c0.301-0.176 0.5-0.497 0.5-0.865v-0c0.020-0.010 0.055-16.14 0.020-16.16zM16 12.695l-12-6.92 2.5-1.44 8.95 5.165c0.141 0.097 0.315 0.156 0.503 0.156 0.011 0 0.023-0 0.034-0.001l-0.002 0c0.010 0 0.022 0.001 0.033 0.001 0.192 0 0.371-0.058 0.52-0.158l-0.003 0.002 8.965-5.165 2.5 1.44zM8.85 16.375l-0.645-0.425c-0.315-0.205-0.701-0.327-1.115-0.327-1.131 0-2.049 0.909-2.065 2.036l-0 0.002v4.84l-2.025-1.15v-13.85l12 6.93v13.84l-3.595-2.075v-5.1c-0.002-1.966-1.009-3.697-2.534-4.707l-0.021-0.013zM26.945 22.5v-4.84c-0.012-1.128-0.93-2.038-2.060-2.038-0.414 0-0.8 0.122-1.123 0.333l0.008-0.005-0.655 0.43c-1.536 1.027-2.535 2.754-2.535 4.715v5.095l-3.58 2.075v-13.835l11.97-6.93v13.85z"></path>
</symbol>
<symbol id="icon-handjob" viewBox="0 0 32 32">
<path d="M4.595 8.185c1.982-0.003 3.587-1.608 3.59-3.59v-0c-0.185-4.755-7.015-4.755-7.185 0 0.003 1.983 1.611 3.59 3.595 3.59 0 0 0 0 0 0v0zM4.595 3c0.842 0.049 1.506 0.743 1.506 1.593s-0.664 1.544-1.501 1.592l-0.004 0c-0.842-0.049-1.506-0.743-1.506-1.593s0.664-1.544 1.501-1.592l0.004-0z"></path>
<path d="M27.405 8.185c0 0 0 0 0 0 1.984 0 3.592-1.607 3.595-3.59v-0c-0.17-4.755-7-4.76-7.185 0 0.003 1.982 1.608 3.587 3.59 3.59h0zM27.405 3c0.842 0.049 1.506 0.743 1.506 1.593s-0.664 1.544-1.501 1.592l-0.004 0c-0.842-0.049-1.506-0.743-1.506-1.593s0.664-1.544 1.501-1.592l0.004-0z"></path>
<path d="M1 27.405c0.17 4.76 7 4.755 7.185 0-0.185-4.755-7.015-4.755-7.185 0zM4.595 29c-0.842-0.049-1.506-0.743-1.506-1.593s0.664-1.544 1.501-1.592l0.004-0c0.842 0.049 1.506 0.743 1.506 1.593s-0.664 1.544-1.501 1.592l-0.004 0z"></path>
<path d="M23.815 27.405c0.165 4.76 7 4.755 7.185 0-0.17-4.755-7-4.755-7.185 0zM27.405 29c-0.842-0.049-1.506-0.743-1.506-1.593s0.664-1.544 1.501-1.592l0.004-0c0.842 0.049 1.506 0.743 1.506 1.593s-0.664 1.544-1.501 1.592l-0.004 0z"></path>
<path d="M4.070 15.965c0.17 4.76 7 4.755 7.185 0-0.165-4.755-7.015-4.755-7.185 0zM7.66 17.56c-0.842-0.049-1.506-0.743-1.506-1.592s0.664-1.544 1.501-1.592l0.004-0c0.842 0.049 1.506 0.743 1.506 1.592s-0.664 1.544-1.501 1.592l-0.004 0z"></path>
<path d="M27.93 15.965c-0.165-4.755-7-4.755-7.185 0 0.17 4.76 7.020 4.755 7.185 0zM24.34 14.375c0.842 0.049 1.506 0.743 1.506 1.592s-0.664 1.544-1.501 1.592l-0.004 0c-0.842-0.049-1.506-0.743-1.506-1.592s0.664-1.544 1.501-1.592l0.004-0z"></path>
<path d="M16 19.595c1.984-0.003 3.592-1.611 3.595-3.595v-0c-0.17-4.755-7-4.755-7.19 0 0.003 1.984 1.611 3.592 3.595 3.595h0zM16 14.405c0.881 0 1.595 0.714 1.595 1.595s-0.714 1.595-1.595 1.595v0c-0.881 0-1.595-0.714-1.595-1.595s0.714-1.595 1.595-1.595v0z"></path>
<path d="M12.425 7.645c0.165 4.76 7 4.755 7.185 0-0.17-4.755-7.020-4.755-7.185 0zM16 9.24c-0.881 0-1.595-0.714-1.595-1.595s0.714-1.595 1.595-1.595v0c0.881 0 1.595 0.714 1.595 1.595s-0.714 1.595-1.595 1.595v0z"></path>
<path d="M12.425 24.32c0.165 4.76 7 4.755 7.185 0-0.17-4.755-7.020-4.755-7.185 0zM16 25.915c-0.842-0.049-1.506-0.743-1.506-1.593s0.664-1.544 1.501-1.592l0.004-0c0.842 0.049 1.506 0.743 1.506 1.593s-0.664 1.544-1.501 1.592l-0.004 0z"></path>
</symbol>
<symbol id="icon-details" viewBox="0 0 32 32">
<path d="M29 28.25v0.75h-0.75c-0.552 0-1 0.448-1 1s0.448 1 1 1v0h1.75c0.552 0 1-0.448 1-1v0-1.75c0-0.552-0.448-1-1-1s-1 0.448-1 1v0z"></path>
<path d="M10.75 29h-3.5c-0.552 0-1 0.448-1 1s0.448 1 1 1v0h3.5c0.552 0 1-0.448 1-1s-0.448-1-1-1v0z"></path>
<path d="M17.75 29h-3.5c-0.552 0-1 0.448-1 1s0.448 1 1 1v0h3.5c0.552 0 1-0.448 1-1s-0.448-1-1-1v0z"></path>
<path d="M24.75 29h-3.5c-0.552 0-1 0.448-1 1s0.448 1 1 1v0h3.5c0.552 0 1-0.448 1-1s-0.448-1-1-1v0z"></path>
<path d="M3.75 29h-0.75v-0.75c0-0.552-0.448-1-1-1s-1 0.448-1 1v0 1.75c0 0.552 0.448 1 1 1v0h1.75c0.552 0 1-0.448 1-1s-0.448-1-1-1v0z"></path>
<path d="M2 18.75c0.552 0 1-0.448 1-1v0-3.5c0-0.552-0.448-1-1-1s-1 0.448-1 1v0 3.5c0 0.552 0.448 1 1 1v0z"></path>
<path d="M2 25.75c0.552 0 1-0.448 1-1v0-3.5c0-0.552-0.448-1-1-1s-1 0.448-1 1v0 3.5c0 0.552 0.448 1 1 1v0z"></path>
<path d="M2 11.75c0.552 0 1-0.448 1-1v0-3.5c0-0.552-0.448-1-1-1s-1 0.448-1 1v0 3.5c0 0.552 0.448 1 1 1v0z"></path>
<path d="M2 4.75c0.552 0 1-0.448 1-1v0-0.75h0.75c0.552 0 1-0.448 1-1s-0.448-1-1-1v0h-1.75c-0.552 0-1 0.448-1 1v0 1.75c0 0.552 0.448 1 1 1v0z"></path>
<path d="M21.25 3h3.5c0.552 0 1-0.448 1-1s-0.448-1-1-1v0h-3.5c-0.552 0-1 0.448-1 1s0.448 1 1 1v0z"></path>
<path d="M7.25 3h3.5c0.552 0 1-0.448 1-1s-0.448-1-1-1v0h-3.5c-0.552 0-1 0.448-1 1s0.448 1 1 1v0z"></path>
<path d="M14.25 3h3.5c0.552 0 1-0.448 1-1s-0.448-1-1-1v0h-3.5c-0.552 0-1 0.448-1 1s0.448 1 1 1v0z"></path>
<path d="M30 1h-1.75c-0.552 0-1 0.448-1 1s0.448 1 1 1v0h0.75v0.75c0 0.552 0.448 1 1 1s1-0.448 1-1v0-1.75c0-0.552-0.448-1-1-1v0z"></path>
<path d="M29 7.25v3.5c0 0.552 0.448 1 1 1s1-0.448 1-1v0-3.5c0-0.552-0.448-1-1-1s-1 0.448-1 1v0z"></path>
<path d="M29 14.25v3.5c0 0.552 0.448 1 1 1s1-0.448 1-1v0-3.5c0-0.552-0.448-1-1-1s-1 0.448-1 1v0z"></path>
<path d="M29 21.25v3.5c0 0.552 0.448 1 1 1s1-0.448 1-1v0-3.5c0-0.552-0.448-1-1-1s-1 0.448-1 1v0z"></path>
<path d="M26.64 15h-9.64v-9.64c0-0.552-0.448-1-1-1s-1 0.448-1 1v0 9.64h-9.64c-0.552 0-1 0.448-1 1s0.448 1 1 1v0h9.64v9.64c0 0.552 0.448 1 1 1s1-0.448 1-1v0-9.64h9.64c0.552 0 1-0.448 1-1s-0.448-1-1-1v0z"></path>
</symbol>
</defs>
</svg>
